REM DIRINDEX 1\2\5,1\2\6,1\2\7,1\2\8,1\3\9,1\3\10,1\3\11,1\4\12,1\4\13,1\4\14,1\4\15,1\4\16
REM DIRNAME cjc034,folder01,folder02,folder03,folder04,folder05,folder06,folder07,folder08,folder09,folder10,folder11,folder12,folder13,folder14,folder15
TITLE ""
FILE "1200_sec05_1671_1681.mp3" MP3
  TRACK 01 AUDIO
    TITLE "0:"
    INDEX 01 00:00:00
  TRACK 02 AUDIO
    TITLE "12:cjc034_10436"
    INDEX 01 00:00:25
  TRACK 03 AUDIO
    TITLE "0:"
    INDEX 01 00:01:56
  TRACK 04 AUDIO
    TITLE "13:cjc034_10437"
    INDEX 01 00:02:14
  TRACK 05 AUDIO
    TITLE "0:"
    INDEX 01 00:03:53
  TRACK 06 AUDIO
    TITLE "14:cjc034_10438"
    INDEX 01 00:04:17
  TRACK 07 AUDIO
    TITLE "0:"
    INDEX 01 00:05:50
  TRACK 08 AUDIO
    TITLE "15:cjc034_10439"
    INDEX 01 00:06:06
  TRACK 09 AUDIO
    TITLE "0:"
    INDEX 01 00:10:06
  TRACK 10 AUDIO
    TITLE "12:cjc034_10440"
    INDEX 01 00:11:40
  TRACK 11 AUDIO
    TITLE "0:"
    INDEX 01 00:14:56
  TRACK 12 AUDIO
    TITLE "13:cjc034_10441"
    INDEX 01 00:15:17
  TRACK 13 AUDIO
    TITLE "0:"
    INDEX 01 00:16:38
  TRACK 14 AUDIO
    TITLE "14:cjc034_10442"
    INDEX 01 00:16:71
  TRACK 15 AUDIO
    TITLE "0:"
    INDEX 01 00:20:14
  TRACK 16 AUDIO
    TITLE "15:cjc034_10443"
    INDEX 01 00:20:47
  TRACK 17 AUDIO
    TITLE "0:"
    INDEX 01 00:25:23
  TRACK 18 AUDIO
    TITLE "12:cjc034_10444"
    INDEX 01 00:26:52
  TRACK 19 AUDIO
    TITLE "0:"
    INDEX 01 00:28:02
  TRACK 20 AUDIO
    TITLE "13:cjc034_10445"
    INDEX 01 00:28:35
  TRACK 21 AUDIO
    TITLE "0:"
    INDEX 01 00:29:56
  TRACK 22 AUDIO
    TITLE "14:cjc034_10446"
    INDEX 01 00:30:10
  TRACK 23 AUDIO
    TITLE "0:"
    INDEX 01 00:31:35
  TRACK 24 AUDIO
    TITLE "15:cjc034_10447"
    INDEX 01 00:31:69
  TRACK 25 AUDIO
    TITLE "0:"
    INDEX 01 00:35:66
  TRACK 26 AUDIO
    TITLE "12:cjc034_10448"
    INDEX 01 00:37:24
  TRACK 27 AUDIO
    TITLE "0:"
    INDEX 01 00:40:24
  TRACK 28 AUDIO
    TITLE "13:cjc034_10449"
    INDEX 01 00:40:56
  TRACK 29 AUDIO
    TITLE "0:"
    INDEX 01 00:43:39
  TRACK 30 AUDIO
    TITLE "14:cjc034_10450"
    INDEX 01 00:44:01
  TRACK 31 AUDIO
    TITLE "0:"
    INDEX 01 00:46:74
  TRACK 32 AUDIO
    TITLE "15:cjc034_10451"
    INDEX 01 00:47:32
  TRACK 33 AUDIO
    TITLE "0:"
    INDEX 01 00:52:06
  TRACK 34 AUDIO
    TITLE "12:cjc034_10452"
    INDEX 01 00:53:37
  TRACK 35 AUDIO
    TITLE "0:"
    INDEX 01 00:56:41
  TRACK 36 AUDIO
    TITLE "13:cjc034_10453"
    INDEX 01 00:56:74
  TRACK 37 AUDIO
    TITLE "0:"
    INDEX 01 00:59:51
  TRACK 38 AUDIO
    TITLE "14:cjc034_10454"
    INDEX 01 01:00:10
  TRACK 39 AUDIO
    TITLE "0:"
    INDEX 01 01:03:14
  TRACK 40 AUDIO
    TITLE "15:cjc034_10455"
    INDEX 01 01:03:47
  TRACK 41 AUDIO
    TITLE "0:"
    INDEX 01 01:07:41
  TRACK 42 AUDIO
    TITLE "12:cjc034_10456"
    INDEX 01 01:09:01
  TRACK 43 AUDIO
    TITLE "0:"
    INDEX 01 01:10:26
  TRACK 44 AUDIO
    TITLE "13:cjc034_10457"
    INDEX 01 01:10:61
  TRACK 45 AUDIO
    TITLE "0:"
    INDEX 01 01:14:45
  TRACK 46 AUDIO
    TITLE "14:cjc034_10458"
    INDEX 01 01:15:01
  TRACK 47 AUDIO
    TITLE "0:"
    INDEX 01 01:16:26
  TRACK 48 AUDIO
    TITLE "15:cjc034_10459"
    INDEX 01 01:16:60
  TRACK 49 AUDIO
    TITLE "0:"
    INDEX 01 01:20:65
  TRACK 50 AUDIO
    TITLE "12:cjc034_10460"
    INDEX 01 01:22:21
  TRACK 51 AUDIO
    TITLE "0:"
    INDEX 01 01:25:02
  TRACK 52 AUDIO
    TITLE "13:cjc034_10461"
    INDEX 01 01:25:35
  TRACK 53 AUDIO
    TITLE "0:"
    INDEX 01 01:27:12
  TRACK 54 AUDIO
    TITLE "14:cjc034_10462"
    INDEX 01 01:27:44
  TRACK 55 AUDIO
    TITLE "0:"
    INDEX 01 01:30:24
  TRACK 56 AUDIO
    TITLE "15:cjc034_10463"
    INDEX 01 01:30:58
  TRACK 57 AUDIO
    TITLE "0:"
    INDEX 01 01:34:18
  TRACK 58 AUDIO
    TITLE "12:cjc034_10464"
    INDEX 01 01:35:49
  TRACK 59 AUDIO
    TITLE "0:"
    INDEX 01 01:39:08
  TRACK 60 AUDIO
    TITLE "13:cjc034_10465"
    INDEX 01 01:39:43
  TRACK 61 AUDIO
    TITLE "0:"
    INDEX 01 01:41:30
  TRACK 62 AUDIO
    TITLE "14:cjc034_10466"
    INDEX 01 01:41:61
  TRACK 63 AUDIO
    TITLE "0:"
    INDEX 01 01:45:20
  TRACK 64 AUDIO
    TITLE "15:cjc034_10467"
    INDEX 01 01:45:53
  TRACK 65 AUDIO
    TITLE "0:"
    INDEX 01 01:51:11
  TRACK 66 AUDIO
    TITLE "12:cjc034_10468"
    INDEX 01 01:52:48
  TRACK 67 AUDIO
    TITLE "0:"
    INDEX 01 01:53:69
  TRACK 68 AUDIO
    TITLE "13:cjc034_10469"
    INDEX 01 01:54:29
  TRACK 69 AUDIO
    TITLE "0:"
    INDEX 01 01:55:36
  TRACK 70 AUDIO
    TITLE "14:cjc034_10470"
    INDEX 01 01:55:67
  TRACK 71 AUDIO
    TITLE "0:"
    INDEX 01 01:57:17
  TRACK 72 AUDIO
    TITLE "15:cjc034_10471"
    INDEX 01 01:57:51
  TRACK 73 AUDIO
    TITLE "0:"
    INDEX 01 02:01:56
  TRACK 74 AUDIO
    TITLE "12:cjc034_10472"
    INDEX 01 02:03:14
  TRACK 75 AUDIO
    TITLE "0:"
    INDEX 01 02:04:33
  TRACK 76 AUDIO
    TITLE "13:cjc034_10473"
    INDEX 01 02:04:66
  TRACK 77 AUDIO
    TITLE "0:"
    INDEX 01 02:08:64
  TRACK 78 AUDIO
    TITLE "14:cjc034_10474"
    INDEX 01 02:09:19
  TRACK 79 AUDIO
    TITLE "0:"
    INDEX 01 02:10:38
  TRACK 80 AUDIO
    TITLE "15:cjc034_10475"
    INDEX 01 02:10:69
  TRACK 81 AUDIO
    TITLE "0:"
    INDEX 01 02:15:11
  TRACK 82 AUDIO
    TITLE "12:cjc034_10476"
    INDEX 01 02:16:46
  TRACK 83 AUDIO
    TITLE "0:"
    INDEX 01 02:18:02
  TRACK 84 AUDIO
    TITLE "13:cjc034_10477"
    INDEX 01 02:18:33
  TRACK 85 AUDIO
    TITLE "0:"
    INDEX 01 02:19:29
  TRACK 86 AUDIO
    TITLE "14:cjc034_10478"
    INDEX 01 02:19:64
  TRACK 87 AUDIO
    TITLE "0:"
    INDEX 01 02:21:20
  TRACK 88 AUDIO
    TITLE "15:cjc034_10479"
    INDEX 01 02:21:53
  TRACK 89 AUDIO
    TITLE "0:"
    INDEX 01 02:25:68
